<?xml version="1.0" encoding="UTF-8"?>
<svg id="Layer_2" data-name="Layer 2" xmlns="http://www.w3.org/2000/svg" viewBox="0 0 12.29 15.9">
  <defs>
    <style>
      .cls-1 {
        fill: #ea0a8c;
        stroke-width: 0px;
      }
    </style>
  </defs>
  <g id="Layer_1-2" data-name="Layer 1">
    <path class="cls-1" d="m10.98.12c-1.22-.43-2.39.28-3.46,1.94-1.01,1.83-.7,3.28.23,3.87l-3.45,8.39c-.12.29-.11.6,0,.88.12.28.35.5.64.61.06.02.13.04.19.05.55.1,1.1-.21,1.28-.74l2.99-8.56c1.4.06,2.43-1.09,2.76-2.78.31-1.59.02-3.24-1.19-3.67Zm.36,4.3s0,0,0,0c-.58,1.49-1.72,1.64-2.24,1.54h-.03s-3.13,8.96-3.13,8.96c-.1.28-.39.44-.67.39-.03,0-.07-.02-.1-.03-.31-.12-.47-.47-.34-.78l.5-1.21,3.06-7.6c-.79-.45-1.13-1.34-.64-2.63.28-.75.81-1.47,1.38-1.95,0,0,0,0,0,0,.44-.45,2.3-1.3,2.57,1.09.12,1.07-.34,2.17-.36,2.22Z"/>
    <path class="cls-1" d="m9.45,14.27S5.43,6.13,5.44,6.12c1.13-1.14.46-2.5.46-2.5L4.19.03,0,2.05s1.26,2.86,1.68,3.68c.57,1.13,1.85,1.11,2.03,1.09l3.65,8.38c.22.51.79.78,1.33.64.06-.02.13-.04.19-.07.28-.13.5-.36.61-.64.11-.29.09-.6-.04-.87Zm-.73,1.09s-.07.03-.1.03c-.28.07-.58-.07-.7-.34l-3.77-8.85s-.09.03-.14.04c-.61.16-1.25-.07-1.61-.56-.03-.04-.14-.22-.16-.27l-1.17-2.55-.3-.65c.25-.11.55.06.63.23l1.37,2.9c.13.29.58.12.44-.21l-1.43-3.11c-.17-.36.28-.6.46-.21l1.54,3.37c.14.36.63.14.44-.21l-1.54-3.36c-.18-.41.28-.61.45-.22,0,0,1.44,3.13,1.44,3.13.14.29.58.1.44-.21l-1.32-2.88c-.12-.25,0-.55.26-.67l.21.48,1.25,2.71c.33.72.03,1.56-.67,1.94l4.25,8.63c.15.3.01.66-.3.8Z"/>
  </g>
</svg>